<?xml version="1.0" standalone="no"?>
<!DOCTYPE svg PUBLIC "-//W3C//DTD SVG 20010904//EN"
 "http://www.w3.org/TR/2001/REC-SVG-20010904/DTD/svg10.dtd">
<svg version="1.0" xmlns="http://www.w3.org/2000/svg"
 width="907.000000pt" height="907.000000pt" viewBox="0 0 907.000000 907.000000"
 preserveAspectRatio="xMidYMid meet">
<metadata>
Created by potrace 1.14, written by Peter Selinger 2001-2017
</metadata>
<g transform="translate(0.000000,907.000000) scale(0.100000,-0.100000)"
fill="#000000" stroke="none">
<path d="M3967 8793 c-1 0 -62 -4 -134 -8 -73 -3 -141 -8 -150 -9 -10 -2 -54
-7 -97 -11 -43 -4 -86 -8 -95 -10 -9 -1 -37 -5 -62 -9 -67 -10 -191 -32 -278
-50 -103 -22 -422 -119 -446 -135 -5 -4 -32 -16 -60 -26 -114 -41 -470 -232
-554 -296 -13 -11 -27 -19 -31 -19 -5 0 -21 33 -36 73 -15 39 -41 110 -59 157
-18 47 -41 106 -50 133 -10 26 -19 46 -21 44 -2 -2 27 -97 66 -211 38 -113 70
-210 70 -214 0 -4 -14 -16 -30 -26 -36 -21 -257 -191 -282 -217 -10 -10 -34
-30 -55 -46 -64 -47 -405 -392 -494 -498 -138 -164 -176 -215 -318 -425 -116
-171 -116 -166 5 -99 58 32 108 59 110 59 2 0 27 11 56 24 255 116 637 177
971 155 54 -3 54 -5 10 -92 -13 -27 -22 -51 -20 -53 2 -2 19 28 38 67 l34 71
70 -6 c39 -4 81 -8 95 -11 126 -25 206 -39 211 -37 6 1 18 -28 109 -268 28
-74 55 -144 60 -155 4 -11 16 -41 26 -68 9 -26 19 -45 21 -43 3 3 -9 42 -26
88 -17 46 -57 161 -89 257 l-59 173 36 -6 c41 -8 65 -14 69 -16 1 -2 5 -3 10
-5 4 -1 14 -4 22 -7 8 -3 62 -20 120 -38 109 -34 290 -103 420 -161 123 -55
478 -233 573 -288 49 -28 90 -51 92 -51 7 0 234 -139 313 -191 41 -27 76 -49
78 -49 3 0 26 -15 52 -33 26 -19 85 -60 132 -92 47 -32 117 -81 155 -110 39
-28 106 -78 150 -110 44 -33 82 -62 85 -65 3 -3 41 -32 85 -65 44 -33 82 -62
85 -65 16 -18 237 -185 305 -231 44 -30 82 -57 83 -61 2 -5 7 -8 12 -8 4 0 39
-19 76 -42 186 -113 430 -204 599 -224 203 -24 396 14 573 112 195 107 368
289 472 494 65 129 120 310 137 445 16 137 10 403 -13 535 -18 109 -91 371
-112 404 -3 6 -7 17 -8 24 -6 37 -156 319 -227 426 -44 66 -83 123 -86 126 -3
3 -33 39 -66 79 -104 129 -269 288 -390 375 -38 28 -76 56 -83 63 -23 22 -195
125 -297 179 -90 47 -191 92 -341 153 -112 45 -417 134 -534 155 -14 3 -61 12
-105 20 -44 9 -105 19 -135 22 -30 3 -57 7 -60 9 -3 2 -39 6 -79 10 -41 4 -82
8 -91 10 -58 11 -603 28 -613 18z"/>
<path d="M6046 8699 c165 -85 389 -222 482 -296 13 -10 49 -38 80 -62 473
-370 879 -911 1102 -1471 82 -206 166 -505 185 -655 2 -22 6 -49 9 -60 2 -11
7 -51 11 -90 4 -38 9 -83 11 -100 4 -38 4 -357 0 -410 -5 -62 -24 -200 -31
-225 -2 -8 -7 -31 -10 -50 -3 -19 -11 -53 -16 -75 -6 -22 -13 -47 -14 -56 -13
-67 -87 -257 -145 -374 -72 -143 -155 -268 -247 -372 -44 -48 -54 -56 -63 -43
-9 12 -10 11 -5 -6 4 -17 -8 -34 -58 -81 -118 -110 -235 -192 -385 -270 -77
-40 -86 -42 -125 -33 -72 16 -371 122 -487 172 -25 10 -54 23 -65 28 -78 33
-412 198 -483 238 -48 27 -114 64 -147 82 -33 18 -79 46 -102 61 -23 16 -44
29 -47 29 -6 0 -200 125 -320 205 -49 33 -249 174 -445 314 -196 140 -450 322
-566 404 -528 377 -825 560 -1230 758 -582 283 -1078 423 -1510 423 -332 1
-570 -66 -790 -222 -159 -112 -314 -306 -376 -471 -20 -55 -84 -270 -93 -314
-3 -12 -16 -71 -30 -132 -41 -181 -77 -408 -91 -585 -3 -41 -8 -95 -11 -120
-5 -51 -5 -506 0 -560 2 -19 7 -75 11 -124 3 -49 8 -96 10 -105 1 -9 6 -43 9
-76 4 -33 14 -98 22 -145 8 -47 17 -101 20 -120 3 -19 7 -43 10 -52 3 -10 7
-30 10 -45 14 -78 91 -357 139 -500 99 -295 257 -635 404 -873 33 -53 44 -77
33 -74 -10 3 -9 0 3 -6 17 -10 48 -52 168 -231 l17 -26 -147 -57 c-82 -31
-155 -59 -165 -61 -9 -2 -29 -10 -45 -18 -15 -8 -52 -22 -81 -32 -29 -9 -52
-19 -49 -21 2 -2 115 34 251 81 137 47 250 85 251 85 2 0 25 -27 51 -61 40
-52 45 -64 36 -82 -22 -45 -71 -167 -67 -167 3 0 23 38 46 85 23 47 43 85 44
85 2 0 22 -24 45 -53 36 -45 78 -92 213 -241 15 -17 32 -41 37 -54 5 -12 14
-21 19 -20 7 2 102 -82 225 -198 29 -27 247 -204 296 -239 30 -21 57 -42 60
-46 3 -3 55 -39 115 -79 61 -39 117 -78 125 -85 8 -8 17 -13 20 -13 3 0 23
-10 44 -23 100 -60 182 -104 321 -173 173 -85 260 -126 268 -126 3 0 27 -10
54 -22 26 -11 53 -22 58 -24 6 -1 54 -18 109 -38 143 -52 155 -44 30 19 -60
30 -130 67 -155 82 -26 15 -73 43 -105 62 -33 19 -61 37 -64 41 -3 3 -37 27
-76 53 -39 26 -77 54 -84 62 -7 8 -18 15 -25 15 -8 0 -15 3 -17 8 -1 4 -38 35
-80 70 -146 119 -294 260 -413 396 -33 38 -65 73 -70 80 -28 30 -178 230 -223
298 -130 193 -325 561 -306 577 5 4 54 25 109 46 234 89 299 114 290 115 -6 0
-76 -23 -155 -51 -163 -56 -263 -89 -266 -86 -2 3 -58 151 -60 157 0 3 -3 12
-7 20 -28 71 -106 351 -121 440 -3 19 -8 46 -11 60 -46 227 -54 611 -19 840
76 496 299 913 638 1195 123 102 378 255 425 255 27 0 223 -67 401 -137 261
-102 683 -316 933 -472 88 -54 450 -293 464 -305 6 -6 41 -31 77 -56 36 -25
130 -91 209 -148 78 -56 160 -115 182 -131 22 -15 169 -120 327 -233 368 -265
838 -578 866 -578 3 0 13 -6 21 -14 9 -7 57 -35 106 -61 50 -26 95 -51 100
-56 38 -29 389 -195 540 -255 61 -25 117 -48 125 -52 8 -5 61 -24 118 -43 56
-18 102 -36 102 -39 0 -3 -84 -36 -185 -74 -102 -38 -184 -70 -183 -72 3 -2
348 113 389 130 9 4 57 -4 106 -18 151 -43 268 -69 388 -87 119 -17 135 -19
229 -24 57 -3 90 -8 88 -15 -1 -6 -27 -67 -57 -137 -30 -70 -53 -128 -52 -130
2 -1 34 59 72 135 38 75 69 138 70 139 0 1 41 5 90 7 115 7 176 14 246 30 l56
14 51 -132 c37 -98 47 -134 38 -142 -15 -16 -133 -62 -244 -95 -104 -32 -287
-67 -395 -76 -140 -13 -481 -5 -547 12 -8 2 -35 7 -60 10 -25 4 -67 11 -95 16
-27 6 -59 12 -70 14 -51 10 -87 19 -170 42 -49 14 -97 26 -105 28 -67 15 -354
125 -485 185 -439 202 -751 377 -1140 638 -194 130 -710 513 -745 552 -19 21
-214 160 -308 220 -209 132 -412 220 -597 259 -113 24 -317 22 -415 -3 -237
-62 -447 -208 -608 -422 -45 -60 -141 -233 -148 -266 -2 -7 -14 -44 -28 -83
-21 -61 -33 -109 -52 -201 -16 -85 -21 -172 -18 -324 2 -96 5 -184 7 -195 10
-54 17 -92 21 -115 26 -159 104 -386 195 -570 152 -303 391 -598 651 -802 91
-72 137 -105 153 -111 11 -4 15 -12 11 -18 -4 -8 -3 -9 4 -5 7 4 12 2 12 -5 0
-7 3 -9 7 -6 3 4 21 -5 40 -19 18 -14 33 -22 33 -18 0 4 8 0 18 -9 52 -46 454
-231 585 -268 26 -7 47 -18 47 -23 0 -5 3 -7 6 -3 3 3 27 -1 52 -9 78 -24 240
-64 362 -90 121 -26 125 -27 235 -40 39 -4 73 -9 78 -10 4 -1 25 -2 48 -3 22
0 38 -5 35 -10 -6 -10 933 -8 974 1 14 4 50 9 80 12 311 34 608 104 860 203
444 174 887 479 1299 893 143 145 306 333 406 472 39 53 73 97 76 97 4 1 20
-36 37 -81 102 -276 181 -477 182 -464 0 8 -115 350 -177 526 l-20 55 72 110
c40 61 71 111 70 113 -2 2 -43 -19 -91 -47 -48 -28 -89 -49 -91 -47 -2 1 -23
61 -48 131 -43 126 -45 144 -11 145 26 0 192 80 263 127 l82 53 145 -64 c80
-35 146 -62 146 -60 0 2 -61 34 -135 71 l-135 67 67 70 c92 94 88 89 143 171
67 99 103 174 134 277 21 69 31 88 49 94 12 4 23 6 25 5 1 -1 16 6 33 15 17 8
40 17 52 20 23 4 43 21 36 29 -3 3 -39 -6 -79 -20 -40 -14 -75 -23 -77 -21 -3
2 5 35 15 73 35 118 115 518 110 552 0 3 0 8 2 11 1 3 3 30 6 60 3 30 9 80 14
110 9 60 6 821 -4 885 -3 22 -11 74 -16 115 -15 108 -18 130 -25 175 -17 110
-26 156 -51 279 -13 65 -24 123 -24 128 0 5 -4 6 -10 3 -5 -3 -10 1 -10 9 0
32 -94 317 -157 475 -62 158 -160 369 -240 517 -123 229 -353 560 -541 779
-113 132 -373 390 -492 489 -52 43 -106 88 -120 100 -122 103 -392 283 -631
419 -133 76 -382 191 -549 254 -145 55 -223 83 -233 83 -6 0 34 -23 89 -51z"/>
<path d="M1861 8704 c0 -11 3 -14 6 -6 3 7 2 16 -1 19 -3 4 -6 -2 -5 -13z"/>
<path d="M1870 8675 c0 -5 5 -17 10 -25 5 -8 10 -10 10 -5 0 6 -5 17 -10 25
-5 8 -10 11 -10 5z"/>
<path d="M355 1700 c-3 -6 1 -7 9 -4 18 7 21 14 7 14 -6 0 -13 -4 -16 -10z"/>
<path d="M8460 1395 c0 -5 5 -17 10 -25 5 -8 10 -10 10 -5 0 6 -5 17 -10 25
-5 8 -10 11 -10 5z"/>
<path d="M1343 1310 c11 -27 22 -48 24 -46 6 5 -29 96 -37 96 -5 0 1 -22 13
-50z"/>
<path d="M1370 1245 c0 -5 5 -17 10 -25 5 -8 10 -10 10 -5 0 6 -5 17 -10 25
-5 8 -10 11 -10 5z"/>
<path d="M3383 295 c0 -8 4 -12 9 -9 5 3 6 10 3 15 -9 13 -12 11 -12 -6z"/>
</g>
</svg>
